<svg xmlns="http://www.w3.org/2000/svg" xmlns:xlink="http://www.w3.org/1999/xlink" width="500" zoomAndPan="magnify" viewBox="0 0 375 239.999995" height="320" preserveAspectRatio="xMidYMid meet" version="1.0"><defs><g/></defs><g fill="#ffffff" fill-opacity="1"><g transform="translate(40.484272, 172.570394)"><g><path d="M 9.828125 -31.054688 L 9.828125 0 L 141.511719 0 L 141.511719 -81.371094 L 40.882812 -81.371094 L 40.882812 -100.628906 L 141.511719 -100.628906 L 141.511719 -131.683594 L 9.828125 -131.683594 L 9.828125 -50.316406 L 110.457031 -50.316406 L 110.457031 -31.054688 Z M 9.828125 -31.054688 "/></g></g></g><g fill="#ffffff" fill-opacity="1"><g transform="translate(183.168642, 172.570394)"><g><path d="M 141.511719 -100.628906 L 141.511719 -131.683594 L 9.828125 -131.683594 L 9.828125 0 L 141.511719 0 L 141.511719 -31.054688 L 40.882812 -31.054688 L 40.882812 -50.316406 L 141.511719 -50.316406 L 141.511719 -81.371094 L 40.882812 -81.371094 L 40.882812 -100.628906 Z M 141.511719 -100.628906 "/></g></g></g><g fill="#ffffff" fill-opacity="1"><g transform="translate(94.628904, 209.084912)"><g><path d="M 15.984375 -6.0625 C 15.984375 -4.050781 15.253906 -2.484375 13.796875 -1.359375 C 12.347656 -0.242188 10.378906 0.3125 7.890625 0.3125 C 5.179688 0.3125 3.101562 -0.0351562 1.65625 -0.734375 L 1.65625 -3.28125 C 2.582031 -2.882812 3.597656 -2.570312 4.703125 -2.34375 C 5.804688 -2.125 6.898438 -2.015625 7.984375 -2.015625 C 9.742188 -2.015625 11.066406 -2.347656 11.953125 -3.015625 C 12.847656 -3.679688 13.296875 -4.613281 13.296875 -5.8125 C 13.296875 -6.601562 13.140625 -7.25 12.828125 -7.75 C 12.515625 -8.25 11.984375 -8.710938 11.234375 -9.140625 C 10.492188 -9.566406 9.367188 -10.050781 7.859375 -10.59375 C 5.734375 -11.351562 4.21875 -12.25 3.3125 -13.28125 C 2.40625 -14.320312 1.953125 -15.679688 1.953125 -17.359375 C 1.953125 -19.109375 2.609375 -20.503906 3.921875 -21.546875 C 5.242188 -22.585938 6.988281 -23.109375 9.15625 -23.109375 C 11.425781 -23.109375 13.507812 -22.691406 15.40625 -21.859375 L 14.578125 -19.546875 C 12.703125 -20.335938 10.875 -20.734375 9.09375 -20.734375 C 7.695312 -20.734375 6.601562 -20.429688 5.8125 -19.828125 C 5.019531 -19.222656 4.625 -18.390625 4.625 -17.328125 C 4.625 -16.535156 4.769531 -15.882812 5.0625 -15.375 C 5.351562 -14.875 5.84375 -14.410156 6.53125 -13.984375 C 7.226562 -13.566406 8.285156 -13.109375 9.703125 -12.609375 C 12.097656 -11.753906 13.742188 -10.835938 14.640625 -9.859375 C 15.535156 -8.878906 15.984375 -7.613281 15.984375 -6.0625 Z M 15.984375 -6.0625 "/></g></g></g><g fill="#ffffff" fill-opacity="1"><g transform="translate(112.142094, 209.084912)"><g><path d="M 17.484375 -8.546875 C 17.484375 -5.765625 16.78125 -3.59375 15.375 -2.03125 C 13.976562 -0.46875 12.039062 0.3125 9.5625 0.3125 C 8.039062 0.3125 6.6875 -0.046875 5.5 -0.765625 C 4.3125 -1.484375 3.394531 -2.507812 2.75 -3.84375 C 2.113281 -5.1875 1.796875 -6.753906 1.796875 -8.546875 C 1.796875 -11.335938 2.488281 -13.507812 3.875 -15.0625 C 5.269531 -16.613281 7.203125 -17.390625 9.671875 -17.390625 C 12.066406 -17.390625 13.96875 -16.59375 15.375 -15 C 16.78125 -13.414062 17.484375 -11.265625 17.484375 -8.546875 Z M 4.46875 -8.546875 C 4.46875 -6.367188 4.90625 -4.707031 5.78125 -3.5625 C 6.65625 -2.425781 7.9375 -1.859375 9.625 -1.859375 C 11.320312 -1.859375 12.609375 -2.425781 13.484375 -3.5625 C 14.359375 -4.695312 14.796875 -6.359375 14.796875 -8.546875 C 14.796875 -10.722656 14.359375 -12.375 13.484375 -13.5 C 12.609375 -14.625 11.3125 -15.1875 9.59375 -15.1875 C 7.90625 -15.1875 6.628906 -14.628906 5.765625 -13.515625 C 4.898438 -12.410156 4.46875 -10.753906 4.46875 -8.546875 Z M 4.46875 -8.546875 "/></g></g></g><g fill="#ffffff" fill-opacity="1"><g transform="translate(131.415958, 209.084912)"><g><path d="M 5.328125 0 L 2.734375 0 L 2.734375 -24.234375 L 5.328125 -24.234375 Z M 5.328125 0 "/></g></g></g><g fill="#ffffff" fill-opacity="1"><g transform="translate(139.486983, 209.084912)"><g><path d="M 13.25 0 L 12.734375 -2.4375 L 12.609375 -2.4375 C 11.753906 -1.363281 10.898438 -0.632812 10.046875 -0.25 C 9.203125 0.125 8.148438 0.3125 6.890625 0.3125 C 5.191406 0.3125 3.863281 -0.125 2.90625 -1 C 1.945312 -1.875 1.46875 -3.113281 1.46875 -4.71875 C 1.46875 -8.164062 4.222656 -9.972656 9.734375 -10.140625 L 12.640625 -10.234375 L 12.640625 -11.296875 C 12.640625 -12.628906 12.347656 -13.613281 11.765625 -14.25 C 11.191406 -14.894531 10.269531 -15.21875 9 -15.21875 C 7.582031 -15.21875 5.972656 -14.78125 4.171875 -13.90625 L 3.375 -15.890625 C 4.21875 -16.347656 5.140625 -16.707031 6.140625 -16.96875 C 7.148438 -17.226562 8.15625 -17.359375 9.15625 -17.359375 C 11.195312 -17.359375 12.707031 -16.90625 13.6875 -16 C 14.664062 -15.09375 15.15625 -13.644531 15.15625 -11.65625 L 15.15625 0 Z M 7.40625 -1.828125 C 9.007812 -1.828125 10.269531 -2.265625 11.1875 -3.140625 C 12.113281 -4.023438 12.578125 -5.265625 12.578125 -6.859375 L 12.578125 -8.390625 L 9.984375 -8.28125 C 7.929688 -8.207031 6.445312 -7.890625 5.53125 -7.328125 C 4.625 -6.765625 4.171875 -5.882812 4.171875 -4.6875 C 4.171875 -3.75 4.453125 -3.035156 5.015625 -2.546875 C 5.585938 -2.066406 6.382812 -1.828125 7.40625 -1.828125 Z M 7.40625 -1.828125 "/></g></g></g><g fill="#ffffff" fill-opacity="1"><g transform="translate(157.233896, 209.084912)"><g><path d="M 10.53125 -17.390625 C 11.289062 -17.390625 11.972656 -17.328125 12.578125 -17.203125 L 12.21875 -14.796875 C 11.507812 -14.953125 10.882812 -15.03125 10.34375 -15.03125 C 8.957031 -15.03125 7.773438 -14.46875 6.796875 -13.34375 C 5.816406 -12.226562 5.328125 -10.832031 5.328125 -9.15625 L 5.328125 0 L 2.734375 0 L 2.734375 -17.078125 L 4.875 -17.078125 L 5.171875 -13.90625 L 5.296875 -13.90625 C 5.929688 -15.019531 6.691406 -15.878906 7.578125 -16.484375 C 8.472656 -17.085938 9.457031 -17.390625 10.53125 -17.390625 Z M 10.53125 -17.390625 "/></g></g></g><g fill="#ffffff" fill-opacity="1"><g transform="translate(170.25972, 209.084912)"><g/></g></g><g fill="#ffffff" fill-opacity="1"><g transform="translate(178.548882, 209.084912)"><g><path d="M 15.828125 0 L 3.125 0 L 3.125 -22.78125 L 15.828125 -22.78125 L 15.828125 -20.421875 L 5.78125 -20.421875 L 5.78125 -13.09375 L 15.21875 -13.09375 L 15.21875 -10.75 L 5.78125 -10.75 L 5.78125 -2.375 L 15.828125 -2.375 Z M 15.828125 0 "/></g></g></g><g fill="#ffffff" fill-opacity="1"><g transform="translate(196.295794, 209.084912)"><g><path d="M 14.421875 0 L 14.421875 -11.046875 C 14.421875 -12.441406 14.101562 -13.476562 13.46875 -14.15625 C 12.84375 -14.84375 11.851562 -15.1875 10.5 -15.1875 C 8.71875 -15.1875 7.410156 -14.703125 6.578125 -13.734375 C 5.742188 -12.773438 5.328125 -11.179688 5.328125 -8.953125 L 5.328125 0 L 2.734375 0 L 2.734375 -17.078125 L 4.84375 -17.078125 L 5.265625 -14.734375 L 5.390625 -14.734375 C 5.921875 -15.578125 6.660156 -16.226562 7.609375 -16.6875 C 8.566406 -17.15625 9.632812 -17.390625 10.8125 -17.390625 C 12.863281 -17.390625 14.410156 -16.890625 15.453125 -15.890625 C 16.492188 -14.898438 17.015625 -13.316406 17.015625 -11.140625 L 17.015625 0 Z M 14.421875 0 "/></g></g></g><g fill="#ffffff" fill-opacity="1"><g transform="translate(215.88128, 209.084912)"><g><path d="M 9.953125 0.3125 C 7.429688 0.3125 5.441406 -0.453125 3.984375 -1.984375 C 2.523438 -3.523438 1.796875 -5.660156 1.796875 -8.390625 C 1.796875 -11.148438 2.472656 -13.335938 3.828125 -14.953125 C 5.179688 -16.578125 7 -17.390625 9.28125 -17.390625 C 11.425781 -17.390625 13.117188 -16.6875 14.359375 -15.28125 C 15.609375 -13.875 16.234375 -12.015625 16.234375 -9.703125 L 16.234375 -8.0625 L 4.46875 -8.0625 C 4.519531 -6.0625 5.023438 -4.539062 5.984375 -3.5 C 6.953125 -2.46875 8.304688 -1.953125 10.046875 -1.953125 C 11.890625 -1.953125 13.707031 -2.332031 15.5 -3.09375 L 15.5 -0.796875 C 14.582031 -0.398438 13.71875 -0.117188 12.90625 0.046875 C 12.09375 0.222656 11.109375 0.3125 9.953125 0.3125 Z M 9.25 -15.21875 C 7.882812 -15.21875 6.789062 -14.769531 5.96875 -13.875 C 5.15625 -12.988281 4.675781 -11.753906 4.53125 -10.171875 L 13.453125 -10.171875 C 13.453125 -11.804688 13.085938 -13.054688 12.359375 -13.921875 C 11.640625 -14.785156 10.601562 -15.21875 9.25 -15.21875 Z M 9.25 -15.21875 "/></g></g></g><g fill="#ffffff" fill-opacity="1"><g transform="translate(233.784004, 209.084912)"><g><path d="M 10.53125 -17.390625 C 11.289062 -17.390625 11.972656 -17.328125 12.578125 -17.203125 L 12.21875 -14.796875 C 11.507812 -14.953125 10.882812 -15.03125 10.34375 -15.03125 C 8.957031 -15.03125 7.773438 -14.46875 6.796875 -13.34375 C 5.816406 -12.226562 5.328125 -10.832031 5.328125 -9.15625 L 5.328125 0 L 2.734375 0 L 2.734375 -17.078125 L 4.875 -17.078125 L 5.171875 -13.90625 L 5.296875 -13.90625 C 5.929688 -15.019531 6.691406 -15.878906 7.578125 -16.484375 C 8.472656 -17.085938 9.457031 -17.390625 10.53125 -17.390625 Z M 10.53125 -17.390625 "/></g></g></g><g fill="#ffffff" fill-opacity="1"><g transform="translate(246.809829, 209.084912)"><g><path d="M 16.71875 -17.078125 L 16.71875 -15.4375 L 13.546875 -15.0625 C 13.835938 -14.695312 14.097656 -14.222656 14.328125 -13.640625 C 14.554688 -13.054688 14.671875 -12.394531 14.671875 -11.65625 C 14.671875 -9.976562 14.097656 -8.640625 12.953125 -7.640625 C 11.816406 -6.648438 10.25 -6.15625 8.25 -6.15625 C 7.75 -6.15625 7.273438 -6.195312 6.828125 -6.28125 C 5.722656 -5.695312 5.171875 -4.960938 5.171875 -4.078125 C 5.171875 -3.609375 5.363281 -3.257812 5.75 -3.03125 C 6.132812 -2.8125 6.796875 -2.703125 7.734375 -2.703125 L 10.75 -2.703125 C 12.59375 -2.703125 14.007812 -2.3125 15 -1.53125 C 16 -0.757812 16.5 0.367188 16.5 1.859375 C 16.5 3.742188 15.738281 5.179688 14.21875 6.171875 C 12.707031 7.171875 10.5 7.671875 7.59375 7.671875 C 5.351562 7.671875 3.628906 7.253906 2.421875 6.421875 C 1.210938 5.585938 0.609375 4.410156 0.609375 2.890625 C 0.609375 1.859375 0.941406 0.960938 1.609375 0.203125 C 2.273438 -0.554688 3.207031 -1.070312 4.40625 -1.34375 C 3.96875 -1.539062 3.597656 -1.84375 3.296875 -2.25 C 3.003906 -2.664062 2.859375 -3.148438 2.859375 -3.703125 C 2.859375 -4.328125 3.023438 -4.875 3.359375 -5.34375 C 3.691406 -5.8125 4.21875 -6.265625 4.9375 -6.703125 C 4.050781 -7.066406 3.332031 -7.679688 2.78125 -8.546875 C 2.226562 -9.421875 1.953125 -10.421875 1.953125 -11.546875 C 1.953125 -13.410156 2.507812 -14.847656 3.625 -15.859375 C 4.75 -16.878906 6.335938 -17.390625 8.390625 -17.390625 C 9.285156 -17.390625 10.09375 -17.285156 10.8125 -17.078125 Z M 3.09375 2.859375 C 3.09375 3.785156 3.484375 4.488281 4.265625 4.96875 C 5.046875 5.445312 6.164062 5.6875 7.625 5.6875 C 9.789062 5.6875 11.394531 5.359375 12.4375 4.703125 C 13.476562 4.054688 14 3.179688 14 2.078125 C 14 1.148438 13.710938 0.503906 13.140625 0.140625 C 12.578125 -0.210938 11.503906 -0.390625 9.921875 -0.390625 L 6.828125 -0.390625 C 5.648438 -0.390625 4.734375 -0.109375 4.078125 0.453125 C 3.421875 1.015625 3.09375 1.816406 3.09375 2.859375 Z M 4.5 -11.609375 C 4.5 -10.410156 4.835938 -9.503906 5.515625 -8.890625 C 6.191406 -8.285156 7.128906 -7.984375 8.328125 -7.984375 C 10.859375 -7.984375 12.125 -9.207031 12.125 -11.65625 C 12.125 -14.21875 10.84375 -15.5 8.28125 -15.5 C 7.070312 -15.5 6.140625 -15.171875 5.484375 -14.515625 C 4.828125 -13.859375 4.5 -12.890625 4.5 -11.609375 Z M 4.5 -11.609375 "/></g></g></g><g fill="#ffffff" fill-opacity="1"><g transform="translate(264.291857, 209.084912)"><g><path d="M 0.03125 -17.078125 L 2.796875 -17.078125 L 6.546875 -7.34375 C 7.367188 -5.113281 7.875 -3.507812 8.0625 -2.53125 L 8.1875 -2.53125 C 8.320312 -3.050781 8.601562 -3.953125 9.03125 -5.234375 C 9.46875 -6.523438 10.882812 -10.472656 13.28125 -17.078125 L 16.046875 -17.078125 L 8.703125 2.375 C 7.984375 4.289062 7.132812 5.648438 6.15625 6.453125 C 5.1875 7.265625 4 7.671875 2.59375 7.671875 C 1.800781 7.671875 1.019531 7.582031 0.25 7.40625 L 0.25 5.328125 C 0.820312 5.453125 1.460938 5.515625 2.171875 5.515625 C 3.941406 5.515625 5.207031 4.519531 5.96875 2.53125 L 6.921875 0.09375 Z M 0.03125 -17.078125 "/></g></g></g></svg>