<svg xmlns="http://www.w3.org/2000/svg" xmlns:xlink="http://www.w3.org/1999/xlink" width="500" zoomAndPan="magnify" viewBox="0 0 375 374.999991" height="500" preserveAspectRatio="xMidYMid meet" version="1.0"><defs><clipPath id="66e2a8ddc8"><path d="M 47 56.335938 L 279 56.335938 L 279 283 L 47 283 Z M 47 56.335938 " clip-rule="nonzero"/></clipPath><clipPath id="7349bf0496"><path d="M 84 171 L 232 171 L 232 318.835938 L 84 318.835938 Z M 84 171 " clip-rule="nonzero"/></clipPath><clipPath id="7348704357"><path d="M 46.875 78 L 313 78 L 313 318.835938 L 46.875 318.835938 Z M 46.875 78 " clip-rule="nonzero"/></clipPath></defs><g clip-path="url(#66e2a8ddc8)"><path fill="#63a335" d="M 277.878906 129.699219 C 278.71875 130.617188 278.671875 132.039062 277.753906 132.894531 L 117.820312 281.445312 C 116.902344 282.296875 115.480469 282.234375 114.625 281.332031 L 47.746094 209.214844 C 46.894531 208.308594 46.949219 206.871094 47.863281 206.03125 L 207.785156 57.46875 C 208.703125 56.628906 210.136719 56.675781 210.980469 57.59375 L 277.875 129.699219 " fill-opacity="1" fill-rule="nonzero"/></g><path fill="#7fcb4a" d="M 263.65625 131.113281 C 264.359375 131.867188 264.261719 133.105469 263.445312 133.863281 L 119.847656 267.234375 C 119.03125 268.003906 117.792969 268.003906 117.101562 267.246094 L 61.953125 207.800781 C 61.257812 207.046875 61.359375 205.820312 62.175781 205.0625 L 205.769531 71.691406 C 206.589844 70.921875 207.8125 70.921875 208.519531 71.675781 L 263.65625 131.113281 " fill-opacity="1" fill-rule="nonzero"/><path fill="#63a335" d="M 183.574219 150.164062 C 194.234375 161.644531 193.566406 179.59375 182.089844 190.25 C 170.613281 200.902344 152.679688 200.234375 142.03125 188.75 C 131.386719 177.277344 132.054688 159.328125 143.515625 148.675781 C 154.992188 138.023438 172.929688 138.691406 183.574219 150.164062 " fill-opacity="1" fill-rule="nonzero"/><path fill="#63a335" d="M 61.953125 207.800781 L 76.894531 223.917969 C 86.550781 214.960938 87.105469 199.875 78.15625 190.210938 L 62.175781 205.0625 C 61.359375 205.820312 61.257812 207.046875 61.953125 207.800781 " fill-opacity="1" fill-rule="nonzero"/><path fill="#70b646" d="M 119.726562 267.347656 L 135.832031 252.394531 C 126.867188 242.746094 111.800781 242.175781 102.148438 251.144531 L 116.988281 267.125 C 117.746094 267.953125 118.96875 268.054688 119.726562 267.347656 " fill-opacity="1" fill-rule="nonzero"/><path fill="#63a335" d="M 208.519531 71.675781 L 223.460938 87.78125 C 213.816406 96.738281 198.738281 96.179688 189.789062 86.53125 L 205.769531 71.691406 C 206.589844 70.921875 207.8125 70.921875 208.519531 71.675781 " fill-opacity="1" fill-rule="nonzero"/><path fill="#63a335" d="M 263.554688 133.75 L 247.464844 148.703125 C 238.5 139.050781 239.070312 123.964844 248.714844 115.007812 L 263.542969 131 C 264.3125 131.816406 264.3125 133.054688 263.554688 133.75 " fill-opacity="1" fill-rule="nonzero"/><path fill="#70b646" d="M 327.765625 218.863281 C 328.113281 220.050781 327.433594 221.316406 326.21875 221.648438 L 116.53125 282.074219 C 115.34375 282.410156 114.09375 281.726562 113.746094 280.527344 L 86.539062 185.988281 C 86.191406 184.785156 86.882812 183.535156 88.085938 183.1875 L 297.773438 122.761719 C 298.972656 122.414062 300.222656 123.109375 300.570312 124.3125 L 327.765625 218.863281 " fill-opacity="1" fill-rule="nonzero"/><path fill="#8dd260" d="M 314.445312 213.710938 C 314.730469 214.699219 314.085938 215.742188 313.011719 216.050781 L 124.75 270.308594 C 123.675781 270.617188 122.574219 270.058594 122.289062 269.070312 L 99.855469 191.128906 C 99.570312 190.148438 100.214844 189.085938 101.292969 188.773438 L 289.566406 134.53125 C 290.628906 134.234375 291.730469 134.777344 292.027344 135.769531 L 314.445312 213.710938 " fill-opacity="1" fill-rule="nonzero"/><path fill="#70b646" d="M 234.390625 194.570312 C 238.722656 209.621094 230.035156 225.339844 214.992188 229.675781 C 199.953125 234.011719 184.257812 225.316406 179.925781 210.265625 C 175.589844 195.214844 184.269531 179.496094 199.308594 175.160156 C 214.351562 170.835938 230.058594 179.519531 234.390625 194.570312 " fill-opacity="1" fill-rule="nonzero"/><path fill="#70b646" d="M 99.855469 191.128906 L 105.933594 212.25 C 118.585938 208.617188 125.878906 195.402344 122.25 182.742188 L 101.292969 188.773438 C 100.214844 189.085938 99.574219 190.148438 99.855469 191.128906 " fill-opacity="1" fill-rule="nonzero"/><path fill="#70b646" d="M 124.589844 270.34375 L 145.695312 264.261719 C 142.058594 251.613281 128.859375 244.304688 116.210938 247.949219 L 122.238281 268.917969 C 122.546875 269.984375 123.601562 270.628906 124.589844 270.34375 " fill-opacity="1" fill-rule="nonzero"/><path fill="#70b646" d="M 292.027344 135.769531 L 298.105469 156.890625 C 285.453125 160.53125 272.246094 153.222656 268.605469 140.574219 L 289.566406 134.53125 C 290.628906 134.234375 291.730469 134.777344 292.027344 135.769531 " fill-opacity="1" fill-rule="nonzero"/><path fill="#70b646" d="M 313.171875 216.015625 L 292.066406 222.097656 C 288.425781 209.4375 295.730469 196.230469 308.367188 192.578125 L 314.398438 213.550781 C 314.707031 214.625 314.160156 215.730469 313.171875 216.015625 " fill-opacity="1" fill-rule="nonzero"/><g clip-path="url(#7349bf0496)"><path fill="#f68f34" d="M 231.792969 244.949219 C 231.792969 285.667969 198.8125 318.667969 158.125 318.667969 C 117.449219 318.667969 84.457031 285.667969 84.457031 244.949219 C 84.457031 204.234375 117.449219 171.234375 158.125 171.234375 C 198.8125 171.234375 231.792969 204.234375 231.792969 244.949219 " fill-opacity="1" fill-rule="nonzero"/></g><path fill="#fabb34" d="M 215.230469 244.949219 C 215.230469 276.5 189.667969 302.09375 158.125 302.09375 C 126.59375 302.09375 101.03125 276.5 101.03125 244.949219 C 101.03125 213.398438 126.59375 187.808594 158.125 187.808594 C 189.667969 187.808594 215.230469 213.398438 215.230469 244.949219 " fill-opacity="1" fill-rule="nonzero"/><g clip-path="url(#7348704357)"><path stroke-linecap="round" transform="matrix(0.12379, 0, 0, -0.123873, -75.676711, 451.124082)" fill="none" stroke-linejoin="miter" d="M 2042.788103 1820.601144 C 2042.788103 1820.601144 2034.299658 1919.209295 1904.511649 1928.890363 C 1801.009419 1936.584763 1739.097415 1900.099432 1728.400081 1831.007505 C 1728.400081 1831.007505 1713.695191 1732.399355 1775.196973 1700.486516 C 1847.995645 1662.89748 2049.099215 1658.104247 2051.213437 1524.303677 C 2051.213437 1524.303677 2059.512549 1405.387357 1894.003648 1405.387357 C 1894.003648 1405.387357 1734.395637 1401.098675 1726.096525 1500.905133 " stroke="#f68f34" stroke-width="76.435997" stroke-opacity="1" stroke-miterlimit="10"/></g><path stroke-linecap="round" transform="matrix(0.12379, 0, 0, -0.123873, -75.676711, 451.124082)" fill="none" stroke-linejoin="miter" d="M 1819.784976 2014.695537 L 1819.784976 1923.403373 " stroke="#f68f34" stroke-width="76.435997" stroke-opacity="1" stroke-miterlimit="10"/><path stroke-linecap="round" transform="matrix(0.12379, 0, 0, -0.123873, -75.676711, 451.124082)" fill="none" stroke-linejoin="miter" d="M 1936.603651 2014.695537 L 1936.603651 1923.403373 " stroke="#f68f34" stroke-width="76.435997" stroke-opacity="1" stroke-miterlimit="10"/><path stroke-linecap="round" transform="matrix(0.12379, 0, 0, -0.123873, -75.676711, 451.124082)" fill="none" stroke-linejoin="miter" d="M 1830.292977 1405.387357 L 1830.292977 1314.00059 " stroke="#f68f34" stroke-width="76.435997" stroke-opacity="1" stroke-miterlimit="10"/><path stroke-linecap="round" transform="matrix(0.12379, 0, 0, -0.123873, -75.676711, 451.124082)" fill="none" stroke-linejoin="miter" d="M 1947.111652 1405.387357 L 1947.111652 1314.00059 " stroke="#f68f34" stroke-width="76.435997" stroke-opacity="1" stroke-miterlimit="10"/></svg>