<svg xmlns="http://www.w3.org/2000/svg" xmlns:xlink="http://www.w3.org/1999/xlink" width="500" zoomAndPan="magnify" viewBox="0 0 375 374.999991" height="500" preserveAspectRatio="xMidYMid meet" version="1.0"><defs><clipPath id="c11d333182"><path d="M 57 68 L 307 68 L 307 317.90625 L 57 317.90625 Z M 57 68 " clip-rule="nonzero"/></clipPath></defs><g clip-path="url(#c11d333182)"><path fill="#5db2e7" d="M 288.710938 126.441406 L 260.355469 134.011719 C 259.730469 134.179688 259.078125 133.953125 258.683594 133.441406 C 253.5625 126.804688 247.679688 120.949219 241.183594 115.945312 C 240.675781 115.550781 240.449219 114.898438 240.617188 114.277344 L 248.191406 85.949219 C 248.753906 83.851562 247.671875 81.664062 245.664062 80.832031 L 215.84375 68.488281 C 213.835938 67.660156 211.523438 68.441406 210.433594 70.320312 L 195.75 95.703125 C 195.421875 96.261719 194.804688 96.566406 194.164062 96.480469 C 186.03125 95.429688 177.726562 95.414062 169.410156 96.488281 C 168.769531 96.570312 168.148438 96.269531 167.824219 95.714844 L 153.132812 70.320312 C 152.042969 68.441406 149.730469 67.660156 147.722656 68.488281 L 117.902344 80.832031 C 115.894531 81.664062 114.8125 83.851562 115.375 85.949219 L 122.953125 114.285156 C 123.117188 114.910156 122.890625 115.5625 122.382812 115.953125 C 115.738281 121.074219 109.878906 126.953125 104.871094 133.441406 C 104.476562 133.953125 103.824219 134.175781 103.203125 134.011719 L 74.855469 126.441406 C 72.753906 125.878906 70.566406 126.960938 69.734375 128.96875 L 57.382812 158.765625 C 56.550781 160.769531 57.332031 163.082031 59.214844 164.171875 L 84.617188 178.847656 C 85.175781 179.171875 85.476562 179.789062 85.394531 180.429688 C 84.34375 188.558594 84.328125 196.855469 85.402344 205.164062 C 85.484375 205.804688 85.183594 206.425781 84.625 206.75 L 59.214844 221.433594 C 57.332031 222.519531 56.550781 224.832031 57.382812 226.835938 L 69.734375 256.636719 C 70.566406 258.644531 72.753906 259.722656 74.855469 259.164062 L 103.210938 251.589844 C 103.835938 251.425781 104.488281 251.652344 104.882812 252.160156 C 110.003906 258.796875 115.886719 264.65625 122.382812 269.65625 C 122.890625 270.050781 123.117188 270.703125 122.949219 271.324219 L 115.375 299.652344 C 114.8125 301.75 115.894531 303.941406 117.902344 304.769531 L 147.722656 317.113281 C 149.730469 317.945312 152.042969 317.160156 153.132812 315.28125 L 167.820312 289.898438 C 168.144531 289.339844 168.761719 289.039062 169.402344 289.121094 C 177.535156 290.171875 185.839844 290.1875 194.15625 289.113281 C 194.792969 289.03125 195.417969 289.332031 195.742188 289.890625 L 210.433594 315.28125 C 211.523438 317.164062 213.835938 317.945312 215.84375 317.117188 L 245.664062 304.773438 C 247.671875 303.941406 248.753906 301.75 248.191406 299.652344 L 240.613281 271.316406 C 240.449219 270.695312 240.675781 270.039062 241.183594 269.648438 C 247.824219 264.53125 253.6875 258.652344 258.695312 252.160156 C 259.089844 251.652344 259.742188 251.425781 260.363281 251.59375 L 288.710938 259.164062 C 290.8125 259.722656 293 258.644531 293.832031 256.636719 L 306.1875 226.835938 C 307.015625 224.832031 306.234375 222.519531 304.351562 221.433594 L 278.949219 206.753906 C 278.390625 206.433594 278.089844 205.8125 278.171875 205.171875 C 279.222656 197.046875 279.238281 188.75 278.164062 180.4375 C 278.082031 179.796875 278.382812 179.175781 278.941406 178.851562 L 304.351562 164.171875 C 306.234375 163.082031 307.015625 160.769531 306.1875 158.765625 L 293.832031 128.964844 C 293 126.960938 290.8125 125.878906 288.710938 126.441406 " fill-opacity="1" fill-rule="nonzero"/></g><path fill="#fff9f0" d="M 246.746094 192.800781 C 246.746094 228.65625 217.664062 257.71875 181.78125 257.71875 C 145.902344 257.71875 116.816406 228.65625 116.816406 192.800781 C 116.816406 156.949219 145.902344 127.882812 181.78125 127.882812 C 217.664062 127.882812 246.746094 156.949219 246.746094 192.800781 " fill-opacity="1" fill-rule="nonzero"/><path fill="#45bf95" d="M 209.605469 185.347656 L 185.511719 178.894531 L 194.011719 147.203125 C 195.261719 142.53125 189.359375 139.355469 186.144531 142.976562 L 149.246094 184.5625 C 144.488281 189.917969 147.039062 198.402344 153.960938 200.257812 L 178.054688 206.707031 L 169.554688 238.398438 C 168.304688 243.074219 174.207031 246.25 177.421875 242.628906 L 214.320312 201.042969 C 219.078125 195.683594 216.527344 187.199219 209.605469 185.347656 " fill-opacity="1" fill-rule="nonzero"/><path fill="#45bf95" d="M 277.488281 60.296875 L 248.441406 103.800781 C 245.9375 107.550781 248.625 112.574219 253.136719 112.574219 L 263.445312 112.574219 L 263.445312 176.75 C 263.445312 179.878906 265.984375 182.414062 269.117188 182.414062 L 295.273438 182.414062 C 298.402344 182.414062 300.945312 179.878906 300.945312 176.75 L 300.945312 112.574219 L 311.222656 112.574219 C 315.757812 112.574219 318.460938 107.523438 315.945312 103.753906 L 286.929688 60.296875 C 284.683594 56.929688 279.734375 56.929688 277.488281 60.296875 " fill-opacity="1" fill-rule="nonzero"/></svg>