<svg xmlns="http://www.w3.org/2000/svg" xmlns:xlink="http://www.w3.org/1999/xlink" width="500" zoomAndPan="magnify" viewBox="0 0 375 374.999991" height="500" preserveAspectRatio="xMidYMid meet" version="1.0"><defs><clipPath id="b1548a6782"><path d="M 52.332031 55.34375 L 322.332031 55.34375 L 322.332031 319.34375 L 52.332031 319.34375 Z M 52.332031 55.34375 " clip-rule="nonzero"/></clipPath></defs><g clip-path="url(#b1548a6782)"><path fill="#7ed957" d="M 95.207031 247.226562 C 92.328125 252.398438 90.039062 260.175781 90.039062 265.078125 C 90.039062 266.214844 90.039062 267.664062 90.320312 269.671875 L 54.339844 207.789062 C 53.1875 205.78125 52.332031 202.902344 52.332031 200.308594 C 52.332031 197.707031 53.1875 194.550781 54.339844 192.539062 L 71.613281 162.3125 L 52.332031 151.386719 L 115.082031 150.222656 L 145.585938 205.195312 L 126.019531 193.96875 L 95.210938 247.226562 Z M 122.84375 72.804688 C 128.308594 63.296875 137.238281 58.117188 148.167969 58.117188 C 159.976562 58.117188 169.1875 63.59375 175.804688 74.800781 L 185.59375 91.207031 L 151.621094 149.9375 L 96.65625 117.984375 L 122.847656 72.804688 Z M 126.863281 297.019531 C 110.460938 297.019531 96.933594 283.492188 96.933594 267.085938 C 96.933594 262.480469 98.957031 254.699219 101.835938 249.8125 L 111.035156 233.40625 L 179.257812 233.40625 L 179.257812 297.019531 Z M 181.5625 71.070312 C 177.25 63.59375 171.492188 58.402344 164.585938 55.519531 L 235.382812 55.519531 C 241.714844 55.519531 246.605469 58.117188 249.496094 63.015625 L 267.050781 92.949219 L 286.039062 81.714844 L 255.523438 136.414062 L 193.082031 135.535156 L 212.367188 124.605469 L 181.566406 71.066406 Z M 290.65625 233.984375 C 299.28125 233.984375 306.484375 231.683594 312.523438 227.085938 L 276.824219 289.25 C 273.945312 294.140625 268.777344 297.019531 262.734375 297.019531 L 229.046875 297.019531 L 229.046875 319.183594 L 196.816406 265.363281 L 229.046875 211.527344 L 229.046875 233.984375 Z M 318.269531 182.175781 C 320.867188 186.78125 322.3125 191.667969 322.3125 196.851562 C 322.3125 207.21875 315.683594 218.15625 306.484375 223.328125 C 302.160156 225.644531 296.109375 227.085938 290.078125 227.085938 L 271.066406 227.085938 L 237.117188 168.355469 L 292.089844 136.980469 Z M 318.269531 182.175781 " fill-opacity="1" fill-rule="nonzero"/></g></svg>